# xmcd
#
# Track frame offsets:
# 150
# 24374
# 40978
# 58641
# 84542
# 99806
# 122488
# 142445
# 171374
# 186755
# 202595
# 221991
# 247646
# 266784
# 288048
#
# Disc length: 4184 seconds
#
#
# Revision: 2
# Processed by: cddbd v1.5.2PL0 Copyright (c) Steve Scherf et al.
# Submitted via: FreeRIP 2.951 
#
DISCID=d010560f
DTITLE=La Locomotora Negra - Jazz' and Dancin' - Jazzin' and Dancin'
DYEAR=2008
DGENRE=Jazz
TTITLE0=When life is easy
TTITLE1=Nenúfars
TTITLE2=Bolo's shuffle
TTITLE3=Lazy river
TTITLE4=Where or when
TTITLE5=The great Lie
TTITLE6=Girl talk
TTITLE7=Country atmosphere
TTITLE8=When sunny gets blue
TTITLE9=Shake it easy
TTITLE10=Love pains
TTITLE11=Save your love for me
TTITLE12=Clarinet strut
TTITLE13=After supper
TTITLE14=Lean baby
EXTD=YEAR: 2008
EXTT0=
EXTT1=
EXTT2=
EXTT3=
EXTT4=
EXTT5=
EXTT6=
EXTT7=
EXTT8=
EXTT9=
EXTT10=
EXTT11=
EXTT12=
EXTT13=
EXTT14=
PLAYORDER=
